<?xml version="1.0" encoding="utf-8"?>
<!-- Generator: Adobe Illustrator 23.0.5, SVG Export Plug-In . SVG Version: 6.00 Build 0)  -->
<svg version="1.1" id="Layer_1" xmlns="http://www.w3.org/2000/svg" xmlns:xlink="http://www.w3.org/1999/xlink" x="0px" y="0px"
	 viewBox="0 0 40 40" style="enable-background:new 0 0 40 40;" xml:space="preserve">
<style type="text/css">
	.st0{fill:#EC2227;}
</style>
<g>
	<path class="st0" d="M36.2,14.8c-0.1-0.8-0.4-2.8-2.1-4.1v0c-0.3-0.3-1.3-1.1-2.7-1.2c-1.3-0.1-2.3,0.3-2.9,0.6
		c-0.6,0.4-1.1,0.8-1.5,1.4c-0.2-0.4-0.5-0.7-0.7-1.1l-0.1-0.1c-0.5-0.7-1.2-1.8-2.1-2.8c-1-1.2-1.9-2.2-3.4-2.9
		C19.8,4.2,19,4,18.1,4c-0.3,0-1.1,0-1.7,0.5c-0.1,0.1-0.2,0.2-0.3,0.3c-0.2-0.2-0.5-0.4-0.7-0.5c-0.6-0.3-1.1-0.4-1.3-0.5
		c-0.3-0.1-0.8-0.2-1.4-0.1c-0.9,0-1.6,0.4-1.9,0.5C10.1,4.5,9.5,5,8.9,5.6C8.6,6.1,8.4,6.5,8.3,7C8.1,7.6,8,8.2,8,8.8
		C7.5,9,6.2,9.6,5.4,10.9c-0.4,0.7-0.5,1.4-0.5,2.2L5,14.4c-0.4,0.3-0.7,0.6-1,1c-0.4,0.6-0.5,1.2-0.5,1.5c-0.3,1.6,0.4,3.4,0.7,4.1
		c1,2.3,2.2,4.5,3.6,6.6l0,0.1c1,1.5,2.8,4,5.6,6.1c0.9,0.6,2.2,1.6,4.3,2.3c1.5,0.5,3.1,0.8,4.7,0.8c0.5,0,0.9,0,1.4-0.1
		c0,0,0.1,0,0.1,0l0,0c3.2-0.6,5.8-2.3,5.8-2.3c1.8-1.2,3.3-2.8,4.4-4.6c0.3-0.6,1.2-2.2,1.8-5.1C36.6,21.6,36.7,18.2,36.2,14.8z
		 M33,24.2c-0.4,1.5-1.2,4.4-3.9,6.8c-0.6,0.6-2.4,2.1-5.1,2.6c-1.7,0.3-3.5,0.2-5.1-0.3c-1.5-0.5-2.6-1.2-3.4-1.8
		c-2.3-1.7-3.7-3.6-5-5.5c-0.4-0.6-0.7-1.1-1.3-2l-0.1-0.2c0,0-0.6-0.9-1.7-3.2c0-0.1-0.4-0.8-0.6-1.7c-0.1-0.3-0.1-0.6-0.1-1
		c0-0.3,0.1-0.7,0.4-0.9c0.2-0.2,0.5-0.2,0.7-0.2c0.1,0,0.2,0,0.2,0c0,0,0,0,0.1,0C8.4,16.8,8.8,17,9,17.2c0.9,0.8,3,3.7,3.4,4.3
		l0,0c0.3,0.4,0.5,0.7,0.8,1.1c0.1,0.1,0.3,0.4,0.5,0.6c0.3,0.4,0.5,0.6,0.8,0.7c0.1,0,0.2,0,0.3,0c0.1-0.1,0.2-0.3,0.1-0.6L14.7,23
		l0,0c-0.8-1.2-1.6-2.2-2.2-3.2c-2.2-3.1-3.6-5.2-3.9-5.6c-0.1-0.1-0.2-0.3-0.3-0.7c-0.1-0.4,0-0.7,0.1-0.9l0.4-0.7
		c0.2-0.1,0.6-0.5,1.2-0.5c0.6,0,1.1,0.3,1.2,0.4l5.5,7.4c0.2,0.2,0.4,0.4,0.6,0.5c0.1,0,0.2,0,0.3-0.1c0.2-0.1,0.2-0.5,0-0.9
		l-6.2-9.4c-0.4-0.9-0.1-2,0.7-2.4c0.6-0.3,1.5-0.2,2.1,0.4c0.2,0.3,0.4,0.6,0.6,0.8c0.8,1.1,1.4,1.9,1.6,2.2c0.4,0.6,1,1.4,1.7,2.5
		c0.8,1.2,1.8,2.6,3,4.3l0,0l0,0c0.2,0.1,0.4,0.2,0.6,0.1c0.2-0.2,0.1-0.7-0.1-1l0,0c-0.3-0.4-2.3-4-4.2-7.5c0-0.1-0.3-0.7,0.1-1.2
		c0.1-0.2,0.4-0.4,0.6-0.4c0.4-0.1,0.9,0,1.6,0.5c1.1,0.7,1.7,1.5,2,1.9c1.3,1.7,2,2.9,2,2.9l3,4.6c0.1,0.1,0.6,0.7,1.1,0.6
		c0.1,0,0.4-0.1,0.7-1c0.2-0.4,0.2-0.6,0.3-0.9c0-0.2,0.1-0.4,0.2-0.6c0.3-0.8,0.5-1.5,1-1.9c0.1-0.1,0.5-0.4,1-0.4
		c0.5,0,1,0.2,1.4,0.6c0.4,0.4,0.5,0.9,0.6,1.2c0.7,3.3,0.5,5.7,0.5,5.8l0,0C33.4,22,33.3,23,33,24.2L33,24.2z"/>
	<path class="st0" d="M12,38c-1.7-0.9-3.2-2.1-4.5-3.5C6,33,4.9,31.2,4,29.2c-0.2-0.4-0.6-0.6-1-0.4c-0.4,0.2-0.6,0.6-0.4,1
		c0.9,2.1,2.2,4,3.7,5.7c1.4,1.5,3.1,2.8,4.9,3.8c0.1,0.1,0.2,0.1,0.4,0.1c0.3,0,0.5-0.1,0.7-0.4C12.5,38.7,12.3,38.2,12,38z"/>
	<path class="st0" d="M23.7,2c1.2,0.5,2.3,1.2,3.2,2c0.8,0.7,1.6,1.6,2.2,2.6c0.1,0.2,0.4,0.4,0.7,0.4c0.1,0,0.3,0,0.4-0.1
		c0.4-0.2,0.5-0.7,0.2-1.1c-0.7-1.1-1.5-2.1-2.5-2.9c-1.1-1-2.3-1.7-3.7-2.3c-0.4-0.2-0.9,0-1,0.4C23.1,1.3,23.3,1.8,23.7,2z"/>
</g>
</svg>
