<?xml version="1.0" encoding="utf-8"?>
<!-- Generator: Adobe Illustrator 23.0.5, SVG Export Plug-In . SVG Version: 6.00 Build 0)  -->
<svg version="1.1" id="Layer_1" xmlns="http://www.w3.org/2000/svg" xmlns:xlink="http://www.w3.org/1999/xlink" x="0px" y="0px"
	 viewBox="0 0 25 25" style="enable-background:new 0 0 25 25;" xml:space="preserve">
<g>
	<path d="M16.2,15.8H8.9c-4.6,0-8.3,3.7-8.3,8.3v0.3h1v-0.3c0-4,3.3-7.3,7.3-7.3h7.3c4,0,7.3,3.3,7.3,7.3v0.3h1v-0.3
		C24.5,19.5,20.8,15.8,16.2,15.8z"/>
	<path d="M12.5,13.4c3.6,0,6.5-2.9,6.5-6.5s-2.9-6.5-6.5-6.5S6,3.3,6,6.9S9,13.4,12.5,13.4z M12.5,1.4c3,0,5.5,2.5,5.5,5.5
		s-2.5,5.5-5.5,5.5c-3,0-5.5-2.5-5.5-5.5S9.5,1.4,12.5,1.4z"/>
</g>
</svg>
