<?xml version="1.0" encoding="utf-8"?>
<!-- Uploaded to: SVG Repo, www.svgrepo.com, Generator: SVG Repo Mixer Tools -->
<svg fill="#000000" width="800px" height="800px" viewBox="0 0 32 32" version="1.1" xmlns="http://www.w3.org/2000/svg">
<title>book-open</title>
<path d="M30.879 5.111c-0.226-0.223-0.536-0.361-0.879-0.361-0 0-0 0-0 0h-0.014l-2.736 0.028v-2.778c-0-0.346-0.141-0.659-0.367-0.886v0c-0.238-0.21-0.546-0.344-0.885-0.364l-0.004-0c-0.277-0.020-0.601-0.031-0.927-0.031-3.478 0-6.655 1.285-9.084 3.407l0.016-0.014c-2.412-2.108-5.59-3.393-9.068-3.393-0.326 0-0.65 0.011-0.971 0.034l0.043-0.002c-0.027-0.002-0.059-0.004-0.090-0.004-0.318 0-0.603 0.142-0.795 0.367l-0.001 0.001c-0.227 0.226-0.368 0.54-0.368 0.886v2.778l-2.737-0.028c-0.009-0-0.020-0-0.031-0-0.337 0-0.642 0.138-0.86 0.362l-0 0c-0.229 0.227-0.371 0.541-0.371 0.889v24c0 0 0 0 0 0 0 0.69 0.559 1.249 1.249 1.249 0.216 0 0.42-0.055 0.597-0.152l-0.007 0.003c1.836-1.087 4.047-1.73 6.408-1.73 2.353 0 4.556 0.638 6.448 1.751l-0.060-0.032c0.034 0.016 0.078 0.032 0.122 0.046l0.009 0.002c0.048 0.023 0.106 0.045 0.166 0.063l0.009 0.002c0.018 0.005 0.034 0.016 0.052 0.019l0.002 0.002h0.006c0.031 0.006 0.062 0.012 0.093 0.016h0.004l0.005 0.002c0.041 0.005 0.088 0.008 0.136 0.008 0.003 0 0.006 0 0.009-0l0.001 0h0.002l0.001-0c0.042 0 0.084-0.002 0.126-0.006h0.002c0.061-0.007 0.114-0.017 0.166-0.029l-0.010 0.002h0.003c0.015-0.004 0.029-0.013 0.044-0.017 0.052-0.017 0.094-0.034 0.135-0.053l-0.008 0.003c0.061-0.020 0.112-0.040 0.16-0.063l-0.008 0.003c1.831-1.081 4.035-1.72 6.388-1.72 2.361 0 4.572 0.643 6.468 1.764l-0.059-0.032c0.171 0.093 0.374 0.148 0.59 0.148 0.69 0 1.249-0.559 1.249-1.249 0-0 0-0 0-0v0-24c0-0 0-0.001 0-0.001 0-0.347-0.142-0.661-0.371-0.888l-0-0zM3.25 28.033v-20.77l1.5 0.016v18.722c0 0.619 0.449 1.133 1.039 1.233l0.007 0.001c-0.988 0.225-1.838 0.5-2.655 0.839l0.108-0.040zM7.25 24.785v-21.494c0.054-0.001 0.117-0.002 0.181-0.002 2.878 0 5.475 1.204 7.315 3.136l0.004 0.004v20.635c-2.119-1.39-4.707-2.234-7.488-2.279l-0.012-0zM24.75 24.785c-2.793 0.045-5.381 0.889-7.554 2.313l0.054-0.033v-20.635c1.844-1.936 4.442-3.14 7.32-3.14 0.063 0 0.126 0.001 0.189 0.002l-0.009-0zM28.75 28.033c-0.709-0.3-1.56-0.574-2.437-0.777l-0.109-0.021c0.597-0.102 1.047-0.616 1.047-1.234v-18.722l1.5-0.016z"></path>
</svg>