<?xml version="1.0" encoding="iso-8859-1"?>
<!-- Uploaded to: SVG Repo, www.svgrepo.com, Generator: SVG Repo Mixer Tools -->
<svg fill="#000000" height="800px" width="800px" version="1.1" id="Layer_1" xmlns="http://www.w3.org/2000/svg" xmlns:xlink="http://www.w3.org/1999/xlink" 
	 viewBox="0 0 512 512" xml:space="preserve">
<g>
	<g>
		<path d="M507.847,240.079L424.82,129.4c-3.92-5.227-10.073-8.301-16.605-8.301l-62.269,0.006v-20.755
			c0-11.463-9.294-20.757-20.757-20.757H62.27c-11.463,0-20.757,9.294-20.757,20.757v242.114H20.757
			C9.294,342.462,0,351.756,0,363.219s9.294,20.757,20.757,20.757h41.46c0.019,0,0.035,0.003,0.054,0.003
			c0.019,0,0.035-0.003,0.054-0.003h51.563c8.838,28.041,35.083,48.432,66.005,48.432c30.922,0,57.168-20.391,66.005-48.432h61.719
			c8.838,28.041,35.083,48.432,66.005,48.432s57.168-20.391,66.005-48.432h51.616c11.463,0,20.757-9.294,20.757-20.757V252.536
			C512,248.043,510.543,243.673,507.847,240.079z M179.892,390.893c-15.26,0-27.676-12.414-27.676-27.673
			c0-15.262,12.415-27.678,27.676-27.678s27.676,12.417,27.676,27.678C207.568,378.481,195.152,390.893,179.892,390.893z
			 M304.432,141.869v200.593h-58.538c-8.838-28.041-35.082-48.432-66.002-48.432c-30.921,0-57.166,20.391-66.002,48.432H83.027
			V121.105h221.405V141.869z M401.297,363.227c-0.007,15.26-12.419,27.666-27.676,27.666c-15.26,0-27.676-12.414-27.676-27.673
			c0-15.262,12.415-27.678,27.676-27.678c15.255,0,27.667,12.408,27.676,27.663c0,0.004-0.001,0.008-0.001,0.008
			C401.296,363.223,401.297,363.227,401.297,363.227z M470.487,342.461h-30.863c-8.838-28.041-35.082-48.432-66.002-48.432
			c-9.837,0-19.194,2.077-27.676,5.795V162.617l51.893-0.004l72.647,96.841V342.461z"/>
	</g>
</g>
</svg>