<svg xmlns="http://www.w3.org/2000/svg" xml:space="preserve" style="enable-background:new 0 0 127 127" viewBox="0 0 127 127"><radialGradient id="a" cx="62.983" cy="63.603" r="130.25" gradientUnits="userSpaceOnUse"><stop offset="0" style="stop-color:#de2d91"/><stop offset=".517" style="stop-color:#f9ac1c"/><stop offset="1" style="stop-color:#f9ac1c"/></radialGradient><path d="M26.4 22.2c1.9 1.5 4.6 1.2 6.1-.7l4-5.1c1.5-1.9 1.2-4.6-.7-6.1s-4.6-1.2-6.1.7l-4 5.1c-1.5 1.9-1.2 4.6.7 6.1z" style="fill:url(#a)"/><radialGradient id="b" cx="62.983" cy="63.603" r="130.25" gradientUnits="userSpaceOnUse"><stop offset="0" style="stop-color:#de2d91"/><stop offset=".517" style="stop-color:#f9ac1c"/><stop offset="1" style="stop-color:#f9ac1c"/></radialGradient><path d="M34.1 28.7c-1.2 1.9-.7 4.4 1.2 5.7 1.9 1.2 4.4.7 5.7-1.2l3.4-5.1c1.2-1.9.7-4.4-1.2-5.7-1.9-1.2-4.4-.7-5.7 1.2l-3.4 5.1z" style="fill:url(#b)"/><radialGradient id="c" cx="62.983" cy="63.603" r="130.25" gradientUnits="userSpaceOnUse"><stop offset="0" style="stop-color:#de2d91"/><stop offset=".517" style="stop-color:#f9ac1c"/><stop offset="1" style="stop-color:#f9ac1c"/></radialGradient><path d="M41.3 12.9c1.4 2 4.1 2.5 6 1.1l5.4-3.7c2-1.4 2.5-4.1 1.1-6-1.4-2-4.1-2.5-6-1.1l-5.4 3.7c-1.9 1.3-2.4 4-1.1 6z" style="fill:url(#c)"/><radialGradient id="d" cx="62.983" cy="63.603" r="130.25" gradientUnits="userSpaceOnUse"><stop offset="0" style="stop-color:#de2d91"/><stop offset=".517" style="stop-color:#f9ac1c"/><stop offset="1" style="stop-color:#f9ac1c"/></radialGradient><path d="M61.9 18c-1.2-2-3.7-2.7-5.7-1.5l-4.7 2.7c-2 1.2-2.7 3.7-1.5 5.7 1.2 2 3.7 2.7 5.7 1.5l4.7-2.7c2-1.1 2.7-3.7 1.5-5.7z" style="fill:url(#d)"/><radialGradient id="e" cx="62.983" cy="63.603" r="130.25" gradientUnits="userSpaceOnUse"><stop offset="0" style="stop-color:#de2d91"/><stop offset=".517" style="stop-color:#f9ac1c"/><stop offset="1" style="stop-color:#f9ac1c"/></radialGradient><path d="m63.8 11.5 6.2-2c2.3-.7 3.5-3.2 2.8-5.5-.7-2.3-3.2-3.5-5.5-2.8l-6.2 2c-2.3.7-3.5 3.2-2.8 5.5.8 2.3 3.2 3.5 5.5 2.8z" style="fill:url(#e)"/><radialGradient id="f" cx="62.983" cy="63.603" r="130.25" gradientUnits="userSpaceOnUse"><stop offset="0" style="stop-color:#de2d91"/><stop offset=".517" style="stop-color:#f9ac1c"/><stop offset="1" style="stop-color:#f9ac1c"/></radialGradient><path d="M80.6 13.8H86c2.2 0 4-1.8 4-4s-1.8-4-4-4h-5.5c-2.2 0-4 1.8-4 4s1.8 4 4.1 4z" style="fill:url(#f)"/><radialGradient id="g" cx="62.983" cy="63.603" r="130.25" gradientUnits="userSpaceOnUse"><stop offset="0" style="stop-color:#de2d91"/><stop offset=".517" style="stop-color:#f9ac1c"/><stop offset="1" style="stop-color:#f9ac1c"/></radialGradient><path d="M80.7 21.3c-.3-2.2-2.3-3.8-4.5-3.5l-5.4.7c-2.2.3-3.8 2.3-3.5 4.5.3 2.2 2.3 3.8 4.5 3.5l5.4-.7c2.3-.3 3.8-2.3 3.5-4.5z" style="fill:url(#g)"/><radialGradient id="h" cx="62.983" cy="63.603" r="130.25" gradientUnits="userSpaceOnUse"><stop offset="0" style="stop-color:#de2d91"/><stop offset=".517" style="stop-color:#f9ac1c"/><stop offset="1" style="stop-color:#f9ac1c"/></radialGradient><path d="m95.6 21.7 4.6 1.4c2.1.7 4.4-.5 5-2.7.7-2.1-.5-4.4-2.7-5L98 14c-2.1-.7-4.4.5-5 2.7-.7 2.1.5 4.4 2.6 5z" style="fill:url(#h)"/><radialGradient id="i" cx="62.983" cy="63.603" r="130.25" gradientUnits="userSpaceOnUse"><stop offset="0" style="stop-color:#de2d91"/><stop offset=".517" style="stop-color:#f9ac1c"/><stop offset="1" style="stop-color:#f9ac1c"/></radialGradient><path d="M96.2 31.9c.6-2-.5-4.1-2.5-4.7l-5.1-1.6c-2-.6-4.1.5-4.7 2.5-.6 2 .5 4.1 2.5 4.7l5.1 1.6c1.9.7 4.1-.5 4.7-2.5z" style="fill:url(#i)"/><radialGradient id="j" cx="62.983" cy="63.603" r="130.25" gradientUnits="userSpaceOnUse"><stop offset="0" style="stop-color:#de2d91"/><stop offset=".517" style="stop-color:#f9ac1c"/><stop offset="1" style="stop-color:#f9ac1c"/></radialGradient><path d="M87.5 43.4c.6-2-.5-4.1-2.5-4.7l-5.1-1.6c-2-.6-4.1.5-4.7 2.5-.6 2 .5 4.1 2.5 4.7l5.1 1.6c1.9.6 4-.5 4.7-2.5z" style="fill:url(#j)"/><radialGradient id="k" cx="62.983" cy="63.603" r="130.25" gradientUnits="userSpaceOnUse"><stop offset="0" style="stop-color:#de2d91"/><stop offset=".517" style="stop-color:#f9ac1c"/><stop offset="1" style="stop-color:#f9ac1c"/></radialGradient><path d="M95 61.1c1.5-1.1 1.8-3.2.6-4.7l-3.2-4.2c-1.1-1.5-3.2-1.8-4.7-.6-1.5 1.1-1.8 3.2-.6 4.7l3.2 4.2c1.1 1.4 3.2 1.7 4.7.6z" style="fill:url(#k)"/><radialGradient id="l" cx="62.983" cy="63.603" r="130.25" gradientUnits="userSpaceOnUse"><stop offset="0" style="stop-color:#de2d91"/><stop offset=".517" style="stop-color:#f9ac1c"/><stop offset="1" style="stop-color:#f9ac1c"/></radialGradient><path d="M91.2 80.2c1.8-.1 3.2-1.8 3-3.6l-.4-5.2c-.1-1.8-1.8-3.2-3.6-3-1.8.1-3.2 1.8-3 3.6l.4 5.2c.2 1.8 1.8 3.2 3.6 3z" style="fill:url(#l)"/><radialGradient id="m" cx="62.983" cy="63.603" r="130.25" gradientUnits="userSpaceOnUse"><stop offset="0" style="stop-color:#de2d91"/><stop offset=".517" style="stop-color:#f9ac1c"/><stop offset="1" style="stop-color:#f9ac1c"/></radialGradient><path d="M116.4 35.5c1.1-1.6.7-3.8-.9-4.9l-4.1-2.9c-1.6-1.1-3.8-.7-4.9.9-1.1 1.6-.7 3.8.9 4.9l4.1 2.9c1.6 1 3.8.7 4.9-.9z" style="fill:url(#m)"/><radialGradient id="n" cx="62.983" cy="63.603" r="130.25" gradientUnits="userSpaceOnUse"><stop offset="0" style="stop-color:#de2d91"/><stop offset=".517" style="stop-color:#f9ac1c"/><stop offset="1" style="stop-color:#f9ac1c"/></radialGradient><path d="m106.2 42.9-3.7-3.3c-1.5-1.3-3.7-1.2-5 .3-1.3 1.5-1.2 3.7.3 5l3.7 3.3c1.5 1.3 3.7 1.2 5-.3s1.1-3.7-.3-5z" style="fill:url(#n)"/><radialGradient id="o" cx="62.983" cy="63.603" r="130.25" gradientUnits="userSpaceOnUse"><stop offset="0" style="stop-color:#de2d91"/><stop offset=".517" style="stop-color:#f9ac1c"/><stop offset="1" style="stop-color:#f9ac1c"/></radialGradient><path d="M117.6 52.1c1.2 1.6 3.4 1.9 5 .7s1.9-3.4.7-5l-2.5-3.3c-1.2-1.6-3.4-1.9-5-.7s-1.9 3.4-.7 5l2.5 3.3z" style="fill:url(#o)"/><radialGradient id="p" cx="62.983" cy="63.603" r="130.25" gradientUnits="userSpaceOnUse"><stop offset="0" style="stop-color:#de2d91"/><stop offset=".517" style="stop-color:#f9ac1c"/><stop offset="1" style="stop-color:#f9ac1c"/></radialGradient><path d="M104.7 56.2c-1.8.8-2.6 2.9-1.8 4.7l1.7 3.8c.8 1.8 2.9 2.6 4.7 1.8 1.8-.8 2.6-2.9 1.8-4.7l-1.7-3.8c-.8-1.8-2.9-2.6-4.7-1.8z" style="fill:url(#p)"/><radialGradient id="q" cx="62.983" cy="63.603" r="130.25" gradientUnits="userSpaceOnUse"><stop offset="0" style="stop-color:#de2d91"/><stop offset=".517" style="stop-color:#f9ac1c"/><stop offset="1" style="stop-color:#f9ac1c"/></radialGradient><path d="m125.3 66.8-1.1-3.4c-.6-1.9-2.6-2.9-4.5-2.2-1.9.6-2.9 2.6-2.2 4.5l1.1 3.4c.6 1.9 2.6 2.9 4.5 2.2 1.8-.7 2.8-2.7 2.2-4.5z" style="fill:url(#q)"/><radialGradient id="r" cx="62.983" cy="63.603" r="130.25" gradientUnits="userSpaceOnUse"><stop offset="0" style="stop-color:#de2d91"/><stop offset=".517" style="stop-color:#f9ac1c"/><stop offset="1" style="stop-color:#f9ac1c"/></radialGradient><path d="M107.5 81.2V77c0-1.8-1.4-3.2-3.2-3.2s-3.2 1.4-3.2 3.2v4.2c0 1.8 1.4 3.2 3.2 3.2s3.2-1.5 3.2-3.2z" style="fill:url(#r)"/><radialGradient id="s" cx="62.983" cy="63.603" r="130.25" gradientUnits="userSpaceOnUse"><stop offset="0" style="stop-color:#de2d91"/><stop offset=".517" style="stop-color:#f9ac1c"/><stop offset="1" style="stop-color:#f9ac1c"/></radialGradient><path d="M117.7 78.9c-1.8.1-3.2 1.6-3.1 3.4l.2 4.2c.1 1.8 1.6 3.2 3.4 3.1 1.8-.1 3.2-1.6 3.1-3.4l-.2-4.2c-.1-1.9-1.6-3.2-3.4-3.1z" style="fill:url(#s)"/><radialGradient id="t" cx="62.983" cy="63.603" r="130.25" gradientUnits="userSpaceOnUse"><stop offset="0" style="stop-color:#de2d91"/><stop offset=".517" style="stop-color:#f9ac1c"/><stop offset="1" style="stop-color:#f9ac1c"/></radialGradient><path d="M110.8 94.9c-1.7-.5-3.5.4-4 2.2l-1.2 4c-.5 1.7.4 3.5 2.2 4 1.7.5 3.5-.4 4-2.2l1.2-4c.5-1.7-.5-3.5-2.2-4z" style="fill:url(#t)"/><radialGradient id="u" cx="62.983" cy="63.603" r="130.25" gradientUnits="userSpaceOnUse"><stop offset="0" style="stop-color:#de2d91"/><stop offset=".517" style="stop-color:#f9ac1c"/><stop offset="1" style="stop-color:#f9ac1c"/></radialGradient><path d="m96.5 97.9 1.8-4.3c.6-1.5-.1-3.3-1.6-3.9-1.5-.6-3.3.1-3.9 1.6L91 95.6c-.6 1.5.1 3.3 1.6 3.9 1.5.6 3.2-.1 3.9-1.6z" style="fill:url(#u)"/><radialGradient id="v" cx="62.983" cy="63.603" r="130.25" gradientUnits="userSpaceOnUse"><stop offset="0" style="stop-color:#de2d91"/><stop offset=".517" style="stop-color:#f9ac1c"/><stop offset="1" style="stop-color:#f9ac1c"/></radialGradient><path d="m79.3 100.9-3.3 3.3c-1.2 1.2-1.2 3.1 0 4.2 1.2 1.2 3.1 1.2 4.2 0l3.3-3.3c1.2-1.2 1.2-3.1 0-4.2-1.2-1.2-3.1-1.2-4.2 0z" style="fill:url(#v)"/><radialGradient id="w" cx="62.983" cy="63.603" r="130.25" gradientUnits="userSpaceOnUse"><stop offset="0" style="stop-color:#de2d91"/><stop offset=".517" style="stop-color:#f9ac1c"/><stop offset="1" style="stop-color:#f9ac1c"/></radialGradient><path d="M82.6 83.8c-1.5-1.1-3.6-.7-4.6.8l-2.3 3.3c-1.1 1.5-.7 3.6.8 4.6 1.5 1.1 3.6.7 4.6-.8l2.3-3.3c1-1.4.7-3.5-.8-4.6z" style="fill:url(#w)"/><radialGradient id="x" cx="62.983" cy="63.603" r="130.25" gradientUnits="userSpaceOnUse"><stop offset="0" style="stop-color:#de2d91"/><stop offset=".517" style="stop-color:#f9ac1c"/><stop offset="1" style="stop-color:#f9ac1c"/></radialGradient><path d="m63.3 104-4.7 1.5c-1.7.5-2.6 2.3-2.1 4 .5 1.7 2.3 2.6 4 2.1l4.7-1.5c1.7-.5 2.6-2.3 2.1-4-.5-1.7-2.3-2.6-4-2.1z" style="fill:url(#x)"/><radialGradient id="y" cx="62.983" cy="63.603" r="130.25" gradientUnits="userSpaceOnUse"><stop offset="0" style="stop-color:#de2d91"/><stop offset=".517" style="stop-color:#f9ac1c"/><stop offset="1" style="stop-color:#f9ac1c"/></radialGradient><path d="M68 91.1c-.5-1.7-2.3-2.6-4-2.1l-5.2 1.6c-1.7.5-2.6 2.3-2.1 4l.2.5c.5 1.7 2.3 2.6 4 2.1l5.2-1.6c1.7-.5 2.6-2.3 2.1-4l-.2-.5z" style="fill:url(#y)"/><radialGradient id="z" cx="62.983" cy="63.603" r="130.25" gradientUnits="userSpaceOnUse"><stop offset="0" style="stop-color:#de2d91"/><stop offset=".517" style="stop-color:#f9ac1c"/><stop offset="1" style="stop-color:#f9ac1c"/></radialGradient><path d="M98.8 108.3c-1.4-1-3.5-.7-4.5.7l-2.1 2.9c-1 1.4-.7 3.5.7 4.5s3.5.7 4.5-.7l2.1-2.9c1.1-1.5.7-3.5-.7-4.5z" style="fill:url(#z)"/><radialGradient id="A" cx="62.983" cy="63.603" r="130.25" gradientUnits="userSpaceOnUse"><stop offset="0" style="stop-color:#de2d91"/><stop offset=".517" style="stop-color:#f9ac1c"/><stop offset="1" style="stop-color:#f9ac1c"/></radialGradient><path d="m79.2 116.1-3.3 2.3c-1.5 1-1.8 3-.8 4.5s3 1.8 4.5.8l3.3-2.3c1.5-1 1.8-3 .8-4.5-1.1-1.4-3.1-1.8-4.5-.8z" style="fill:url(#A)"/><radialGradient id="B" cx="62.983" cy="63.603" r="130.25" gradientUnits="userSpaceOnUse"><stop offset="0" style="stop-color:#de2d91"/><stop offset=".517" style="stop-color:#f9ac1c"/><stop offset="1" style="stop-color:#f9ac1c"/></radialGradient><path d="M66.7 120.6c-.5-1.7-2.3-2.6-4-2.1l-4.2 1.3c-1.7.5-2.6 2.3-2.1 4 .5 1.7 2.3 2.6 4 2.1l4.2-1.3c1.7-.5 2.7-2.3 2.1-4z" style="fill:url(#B)"/><radialGradient id="C" cx="62.983" cy="63.603" r="130.25" gradientUnits="userSpaceOnUse"><stop offset="0" style="stop-color:#de2d91"/><stop offset=".517" style="stop-color:#f9ac1c"/><stop offset="1" style="stop-color:#f9ac1c"/></radialGradient><path d="M46.1 115.5h-4.9c-1.8 0-3.2 1.4-3.2 3.2 0 1.8 1.4 3.2 3.2 3.2h4.9c1.8 0 3.2-1.4 3.2-3.2.1-1.7-1.4-3.2-3.2-3.2z" style="fill:url(#C)"/><radialGradient id="D" cx="62.983" cy="63.603" r="130.25" gradientUnits="userSpaceOnUse"><stop offset="0" style="stop-color:#de2d91"/><stop offset=".517" style="stop-color:#f9ac1c"/><stop offset="1" style="stop-color:#f9ac1c"/></radialGradient><path d="m47.3 100.3-5.4-.3c-1.8-.1-3.3 1.3-3.4 3-.1 1.8 1.3 3.3 3 3.4l5.4.3c1.8.1 3.3-1.3 3.4-3 .2-1.8-1.2-3.3-3-3.4z" style="fill:url(#D)"/><radialGradient id="E" cx="62.983" cy="63.603" r="130.25" gradientUnits="userSpaceOnUse"><stop offset="0" style="stop-color:#de2d91"/><stop offset=".517" style="stop-color:#f9ac1c"/><stop offset="1" style="stop-color:#f9ac1c"/></radialGradient><path d="m49.4 84.6-4.8-1.7c-1.9-.7-4 .3-4.7 2.2-.7 1.9.3 4 2.2 4.7l4.8 1.7c1.9.7 4-.3 4.7-2.2.7-1.9-.3-4-2.2-4.7z" style="fill:url(#E)"/><radialGradient id="F" cx="62.983" cy="63.603" r="130.25" gradientUnits="userSpaceOnUse"><stop offset="0" style="stop-color:#de2d91"/><stop offset=".517" style="stop-color:#f9ac1c"/><stop offset="1" style="stop-color:#f9ac1c"/></radialGradient><path d="m34.4 90.7-5.1-2.9c-1.7-1-3.8-.4-4.8 1.3-1 1.7-.4 3.8 1.3 4.8l5.1 2.9c1.7 1 3.8.4 4.8-1.3 1-1.7.4-3.8-1.3-4.8z" style="fill:url(#F)"/><radialGradient id="G" cx="62.983" cy="63.603" r="130.25" gradientUnits="userSpaceOnUse"><stop offset="0" style="stop-color:#de2d91"/><stop offset=".517" style="stop-color:#f9ac1c"/><stop offset="1" style="stop-color:#f9ac1c"/></radialGradient><path d="m31.7 107.9-5.5-2c-1.7-.6-3.5.2-4.1 1.9-.6 1.7.2 3.5 1.9 4.1l5.5 2c1.7.6 3.5-.2 4.1-1.9.6-1.7-.2-3.5-1.9-4.1z" style="fill:url(#G)"/><radialGradient id="H" cx="62.983" cy="63.603" r="130.25" gradientUnits="userSpaceOnUse"><stop offset="0" style="stop-color:#de2d91"/><stop offset=".517" style="stop-color:#f9ac1c"/><stop offset="1" style="stop-color:#f9ac1c"/></radialGradient><path d="m20.1 95.6-4.4-3.5c-1.7-1.3-4.1-1-5.4.6-1.3 1.7-1 4.1.6 5.4l4.4 3.5c1.7 1.3 4.1 1 5.4-.6s1.1-4.1-.6-5.4z" style="fill:url(#H)"/><radialGradient id="I" cx="62.983" cy="63.603" r="130.25" gradientUnits="userSpaceOnUse"><stop offset="0" style="stop-color:#de2d91"/><stop offset=".517" style="stop-color:#f9ac1c"/><stop offset="1" style="stop-color:#f9ac1c"/></radialGradient><path d="M11.6 86.1c1.8-1.2 2.3-3.6 1.1-5.4l-3.4-5c-1.2-1.8-3.6-2.3-5.4-1.1-1.8 1.2-2.3 3.6-1.1 5.4l3.4 5c1.2 1.8 3.6 2.3 5.4 1.1z" style="fill:url(#I)"/><radialGradient id="J" cx="62.983" cy="63.593" r="130.266" gradientUnits="userSpaceOnUse"><stop offset="0" style="stop-color:#de2d91"/><stop offset=".517" style="stop-color:#f9ac1c"/><stop offset="1" style="stop-color:#f9ac1c"/></radialGradient><path d="M20.1 81c1.2 1.8 3.6 2.3 5.4 1.1 1.8-1.2 2.3-3.6 1.1-5.4l-3.4-5c-1.2-1.8-3.6-2.3-5.4-1.1-1.8 1.2-2.3 3.6-1.1 5.4l3.4 5z" style="fill:url(#J)"/><radialGradient id="K" cx="62.983" cy="63.603" r="130.25" gradientUnits="userSpaceOnUse"><stop offset="0" style="stop-color:#de2d91"/><stop offset=".517" style="stop-color:#f9ac1c"/><stop offset="1" style="stop-color:#f9ac1c"/></radialGradient><path d="m40.6 72.7-3.4-5c-1.2-1.8-3.6-2.3-5.4-1.1-1.8 1.2-2.3 3.6-1.1 5.4l3.4 5c1.2 1.8 3.6 2.3 5.4 1.1 1.8-1.2 2.3-3.6 1.1-5.4z" style="fill:url(#K)"/><radialGradient id="L" cx="62.983" cy="63.603" r="130.25" gradientUnits="userSpaceOnUse"><stop offset="0" style="stop-color:#de2d91"/><stop offset=".517" style="stop-color:#f9ac1c"/><stop offset="1" style="stop-color:#f9ac1c"/></radialGradient><path d="M7.7 69c2.2-.7 3.4-3.1 2.8-5.3l-1.7-5.5C8 56 5.7 54.7 3.4 55.4c-2.2.7-3.4 3.1-2.8 5.3l1.7 5.5c.8 2.3 3.2 3.5 5.4 2.8z" style="fill:url(#L)"/><radialGradient id="M" cx="62.983" cy="63.603" r="130.25" gradientUnits="userSpaceOnUse"><stop offset="0" style="stop-color:#de2d91"/><stop offset=".517" style="stop-color:#f9ac1c"/><stop offset="1" style="stop-color:#f9ac1c"/></radialGradient><path d="M21.7 65.3c2.3-.4 3.8-2.6 3.4-4.9l-1-5.7c-.4-2.3-2.6-3.8-4.9-3.4s-3.8 2.6-3.4 4.9l1 5.7c.5 2.3 2.6 3.8 4.9 3.4z" style="fill:url(#M)"/><radialGradient id="N" cx="62.983" cy="63.603" r="130.25" gradientUnits="userSpaceOnUse"><stop offset="0" style="stop-color:#de2d91"/><stop offset=".517" style="stop-color:#f9ac1c"/><stop offset="1" style="stop-color:#f9ac1c"/></radialGradient><path d="M22.1 43.5c-.3 2.3 1.2 4.4 3.5 4.8 2.3.3 4.4-1.2 4.8-3.5l.9-5.7c.3-2.3-1.2-4.4-3.5-4.8-2.3-.3-4.4 1.2-4.8 3.5l-.9 5.7z" style="fill:url(#N)"/><radialGradient id="O" cx="62.983" cy="63.603" r="130.25" gradientUnits="userSpaceOnUse"><stop offset="0" style="stop-color:#de2d91"/><stop offset=".517" style="stop-color:#f9ac1c"/><stop offset="1" style="stop-color:#f9ac1c"/></radialGradient><path d="M36.5 47.3c-2.3 0-4.2 1.9-4.2 4.2v5.8c0 2.3 1.9 4.2 4.2 4.2 2.3 0 4.2-1.9 4.2-4.2v-5.8c0-2.3-1.9-4.2-4.2-4.2z" style="fill:url(#O)"/><radialGradient id="P" cx="62.983" cy="63.603" r="130.25" gradientUnits="userSpaceOnUse"><stop offset="0" style="stop-color:#de2d91"/><stop offset=".517" style="stop-color:#f9ac1c"/><stop offset="1" style="stop-color:#f9ac1c"/></radialGradient><path d="M51.1 34.2c-1.8-1.2-4.3-.7-5.5 1.1l-3.5 5.3c-1.2 1.8-.7 4.3 1.1 5.5s4.3.7 5.5-1.1l3.5-5.3c1.2-1.8.7-4.3-1.1-5.5z" style="fill:url(#P)"/><radialGradient id="Q" cx="62.983" cy="63.603" r="130.25" gradientUnits="userSpaceOnUse"><stop offset="0" style="stop-color:#de2d91"/><stop offset=".517" style="stop-color:#f9ac1c"/><stop offset="1" style="stop-color:#f9ac1c"/></radialGradient><path d="M71 33.6c-.5-1.9-2.6-3-4.5-2.5l-5.9 1.7c-1.9.5-3 2.6-2.5 4.5s2.6 3 4.5 2.5l5.9-1.7c1.9-.6 3-2.6 2.5-4.5z" style="fill:url(#Q)"/><radialGradient id="R" cx="62.983" cy="63.603" r="130.25" gradientUnits="userSpaceOnUse"><stop offset="0" style="stop-color:#de2d91"/><stop offset=".517" style="stop-color:#f9ac1c"/><stop offset="1" style="stop-color:#f9ac1c"/></radialGradient><path d="M8.5 52c2.3.1 4.3-1.7 4.4-4l.3-6.6c.1-2.3-1.7-4.3-4-4.4-2.3-.1-4.3 1.7-4.4 4l-.3 6.6c-.1 2.3 1.7 4.3 4 4.4z" style="fill:url(#R)"/><radialGradient id="S" cx="62.983" cy="63.603" r="130.25" gradientUnits="userSpaceOnUse"><stop offset="0" style="stop-color:#de2d91"/><stop offset=".517" style="stop-color:#f9ac1c"/><stop offset="1" style="stop-color:#f9ac1c"/></radialGradient><path d="M15.8 35.8c2.3.7 4.7-.6 5.4-3l1.8-6.1c.7-2.3-.6-4.7-3-5.4-2.3-.7-4.7.6-5.4 3l-1.8 6.1c-.6 2.3.7 4.7 3 5.4z" style="fill:url(#S)"/></svg>