<?xml version="1.0" encoding="utf-8"?>
<!-- Generator: Adobe Illustrator 23.0.5, SVG Export Plug-In . SVG Version: 6.00 Build 0)  -->
<svg version="1.1" id="Layer_1" xmlns="http://www.w3.org/2000/svg" xmlns:xlink="http://www.w3.org/1999/xlink" x="0px" y="0px"
	 viewBox="0 0 25 25" style="enable-background:new 0 0 25 25;" xml:space="preserve">
<path d="M24.2,11.6l-3.1-1.5l3.1-1.7l0-1.5L12.8,1.3l-0.8,0L1,6.9l0,1.5L4,10.1l-3,1.5l0,1.5l3,1.7l-3,1.5l0,1.5L12.1,24l0.8,0
	l11.3-6.2l0-1.5l-3.1-1.5l3.1-1.7L24.2,11.6z M12.5,3l9.5,4.7l-9.5,5.2L3.2,7.7L12.5,3z M21.9,17.1l-9.5,5.2l-9.3-5.2l2.6-1.3
	l6.3,3.5l0.8,0l6.4-3.5L21.9,17.1z M12.5,17.6l-9.3-5.2l2.6-1.3l6.2,3.5l0.8,0l6.4-3.5l2.7,1.3L12.5,17.6z"/>
</svg>
