<?xml version="1.0" encoding="utf-8"?>
<!-- Generator: Adobe Illustrator 23.0.5, SVG Export Plug-In . SVG Version: 6.00 Build 0)  -->
<svg version="1.1" id="Layer_1" xmlns="http://www.w3.org/2000/svg" xmlns:xlink="http://www.w3.org/1999/xlink" x="0px" y="0px"
	 viewBox="0 0 25 25" style="enable-background:new 0 0 25 25;" xml:space="preserve">
<g>
	<path d="M12.5,10.8c2.6,0,4.7-2.1,4.7-4.7c0-2.6-2.1-4.7-4.7-4.7c-2.6,0-4.7,2.1-4.7,4.7C7.8,8.7,9.9,10.8,12.5,10.8z M8.9,6.1
		c0-1.9,1.6-3.6,3.6-3.6s3.6,1.6,3.6,3.6s-1.6,3.6-3.6,3.6S8.9,8.1,8.9,6.1z"/>
	<path d="M12.5,13.6c-5.8,0-10.7,4.3-11.4,10l1.1,0.1c0.7-5.1,5.1-9,10.3-9c5.2,0,9.6,3.9,10.3,9l1.1-0.1
		C23.2,17.8,18.3,13.6,12.5,13.6z"/>
</g>
</svg>
