<?xml version="1.0" encoding="utf-8"?>
<!-- Generator: Adobe Illustrator 23.0.5, SVG Export Plug-In . SVG Version: 6.00 Build 0)  -->
<svg version="1.1" id="Layer_1" xmlns="http://www.w3.org/2000/svg" xmlns:xlink="http://www.w3.org/1999/xlink" x="0px" y="0px"
	 viewBox="0 0 25 25" style="enable-background:new 0 0 25 25;" xml:space="preserve">
<g>
	<path d="M12.5,13.7c-5,0-9.3,3.8-10,8.7L4,22.6c0.6-4.2,4.2-7.4,8.5-7.4c4.3,0,7.9,3.2,8.5,7.4l1.5-0.2
		C21.8,17.5,17.5,13.7,12.5,13.7z"/>
	<path d="M12.5,11.8c2.3,0,4.1-1.8,4.1-4.1c0-2.3-1.8-4.1-4.1-4.1c-2.3,0-4.1,1.8-4.1,4.1C8.4,10,10.2,11.8,12.5,11.8z M12.5,5.1
		c1.4,0,2.6,1.2,2.6,2.6c0,1.4-1.2,2.6-2.6,2.6c-1.4,0-2.6-1.2-2.6-2.6C9.9,6.3,11.1,5.1,12.5,5.1z"/>
</g>
</svg>
