<?xml version="1.0" encoding="utf-8"?>
<!-- Generator: Adobe Illustrator 23.0.5, SVG Export Plug-In . SVG Version: 6.00 Build 0)  -->
<svg version="1.1" id="Layer_1" xmlns="http://www.w3.org/2000/svg" xmlns:xlink="http://www.w3.org/1999/xlink" x="0px" y="0px"
	 viewBox="0 0 25 25" style="enable-background:new 0 0 25 25;" xml:space="preserve">
<path d="M23.23,22.06l-3.67-3.76c1.47-1.75,2.36-4.01,2.36-6.47c0-5.56-4.52-10.08-10.07-10.08c-5.56,0-10.08,4.52-10.08,10.08
	c0,5.56,4.52,10.07,10.08,10.07c2.48,0,4.75-0.91,6.51-2.4l3.65,3.74L23.23,22.06z M11.85,20.2c-4.62,0-8.38-3.76-8.38-8.38
	c0-4.62,3.76-8.38,8.38-8.38c4.62,0,8.38,3.76,8.38,8.38C20.22,16.45,16.46,20.2,11.85,20.2z"/>
</svg>
