<?xml version="1.0" encoding="utf-8"?>
<!-- Generator: Adobe Illustrator 23.0.5, SVG Export Plug-In . SVG Version: 6.00 Build 0)  -->
<svg version="1.1" id="Layer_1" xmlns="http://www.w3.org/2000/svg" xmlns:xlink="http://www.w3.org/1999/xlink" x="0px" y="0px"
	 viewBox="0 0 25 25" style="enable-background:new 0 0 25 25;" xml:space="preserve">
<g>
	<rect x="16.3" y="17.2" width="5.1" height="0.8"/>
	<path d="M12.6,0v12.5H25V0H12.6z M21.4,6.9h-5.1V6.2h5.1V6.9z"/>
	<path d="M0,25h12.5V12.6H0V25z M4.1,17.1l0.6-0.6L6,17.8l1.4-1.4L8.1,17l-1.4,1.4L8,19.7l-0.6,0.6L6.1,19l-1.5,1.5L4,19.9l1.5-1.5
		L4.1,17.1z"/>
	<rect x="16.3" y="19.3" width="5.1" height="0.8"/>
	<path d="M0,12.5h12.5v0h0V0H0V12.5z M3.9,6.2h1.8v-2h0.9v2h1.8V7H6.6V9H5.7V7H3.9V6.2z"/>
</g>
</svg>
