<svg xmlns="http://www.w3.org/2000/svg" xml:space="preserve" style="enable-background:new 0 0 30 30" viewBox="0 0 30 30"><path d="m29.2 15.1-3-1.4-3.1-4.1h-4.3V6H.5v16.7h4.1c.4 1.4 1.6 2.4 3.1 2.4s2.7-1 3.1-2.4H19.6c.4 1.4 1.6 2.4 3.1 2.4s2.7-1 3.1-2.4h3.4v-7.6zM7.7 23.4c-.8 0-1.5-.7-1.5-1.5s.7-1.5 1.5-1.5 1.5.7 1.5 1.5-.6 1.5-1.5 1.5zm9.5-2.4h-6.4c-.4-1.4-1.6-2.4-3.1-2.4S5 19.6 4.6 21H2.2V7.7h15V21zm5.5 2.4c-.8 0-1.5-.7-1.5-1.5s.7-1.5 1.5-1.5 1.5.7 1.5 1.5-.6 1.5-1.5 1.5zm4.8-2.4h-1.7c-.4-1.4-1.6-2.4-3.1-2.4s-2.7 1-3.1 2.4h-.7v-9.8h3.4l2.8 3.8 2.4 1.1V21z"/></svg>