<?xml version="1.0" encoding="utf-8"?>
<!-- Generator: Adobe Illustrator 23.0.5, SVG Export Plug-In . SVG Version: 6.00 Build 0)  -->
<svg version="1.1" id="Layer_1" xmlns="http://www.w3.org/2000/svg" xmlns:xlink="http://www.w3.org/1999/xlink" x="0px" y="0px"
	 viewBox="0 0 25 25" style="enable-background:new 0 0 25 25;" xml:space="preserve">
<g>
	<path d="M12.7,10.2c-2.3,0-4.2,1.9-4.2,4.2s1.9,4.2,4.2,4.2c2.3,0,4.2-1.9,4.2-4.2S15,10.2,12.7,10.2z M12.7,17.6
		c-1.7,0-3.2-1.4-3.2-3.2c0-1.7,1.4-3.2,3.2-3.2s3.2,1.4,3.2,3.2C15.9,16.2,14.4,17.6,12.7,17.6z"/>
	<path d="M17.7,7.2L15,3.7l-2.3,0l-2.3,0L7.7,7.2h-5v14.5h20V7.2H17.7z M21.6,20.6H3.8V8.3h4.5l0,0l0,0c0.9-1.1,1.7-2.3,2.6-3.4
		c1.2,0,2.4,0,3.5,0c0.9,1.1,1.7,2.3,2.6,3.4l0,0l0,0h4.5V20.6z"/>
</g>
</svg>
