<?xml version="1.0" encoding="utf-8"?>
<!-- Generator: Adobe Illustrator 23.0.5, SVG Export Plug-In . SVG Version: 6.00 Build 0)  -->
<svg version="1.1" id="Layer_1" xmlns="http://www.w3.org/2000/svg" xmlns:xlink="http://www.w3.org/1999/xlink" x="0px" y="0px"
	 viewBox="0 0 21 21" style="enable-background:new 0 0 21 21;" xml:space="preserve">
<style type="text/css">
	.st0{fill:#FBBC05;}
	.st1{fill:#EA4335;}
	.st2{fill:#34A853;}
	.st3{fill:#4285F4;}
</style>
<g>
	<g>
		<path class="st0" d="M5.7,6.8L3.2,3.7c-1.7,1.8-2.7,4.2-2.7,6.8c0,1.8,0.5,3.5,1.3,5L5,13c-0.3-0.8-0.5-1.6-0.5-2.5
			C4.4,9.1,4.9,7.8,5.7,6.8z"/>
	</g>
	<g>
		<path class="st1" d="M3.2,3.7l2.5,3.1c1.1-1.4,2.8-2.3,4.8-2.3c1.4,0,2.7,0.5,3.7,1.2l3.1-2.5c-1.8-1.7-4.2-2.7-6.8-2.7
			C7.6,0.5,5,1.7,3.2,3.7z"/>
	</g>
	<g>
		<path class="st2" d="M13.3,15.9c-0.8,0.4-1.8,0.7-2.8,0.7C8,16.6,5.9,15.1,5,13l-3.1,2.5c1.7,3,5,5,8.7,5c2,0,3.8-0.6,5.3-1.5
			L13.3,15.9z"/>
	</g>
	<g>
		<path class="st3" d="M20.3,8.5h-4h-5.7h-0.1v0.1v3.9h5.8c-0.5,1.5-1.6,2.7-3,3.4l2.5,3.1c2.3-1.4,3.9-3.7,4.5-6.5
			c0.1-0.6,0.2-1.3,0.2-2C20.5,9.8,20.4,9.2,20.3,8.5z"/>
	</g>
</g>
</svg>
