<?xml version="1.0" encoding="utf-8"?>
<!-- Generator: Adobe Illustrator 23.0.5, SVG Export Plug-In . SVG Version: 6.00 Build 0)  -->
<svg version="1.1" id="Layer_1" xmlns="http://www.w3.org/2000/svg" xmlns:xlink="http://www.w3.org/1999/xlink" x="0px" y="0px"
	 viewBox="0 0 25 25" style="enable-background:new 0 0 25 25;" xml:space="preserve">
<g>
	<path d="M16.2,15.8H8.9c-4.8,0-8.7,3.9-8.7,8.7v0.3h1.7v-0.3c0-3.8,3.1-7,7-7h7.3c3.8,0,7,3.1,7,7v0.3h1.7v-0.3
		C24.8,19.7,21,15.8,16.2,15.8z"/>
	<path d="M12.5,13.6c3.5,0,6.3-2.8,6.3-6.3S16,0.9,12.5,0.9C9,0.9,6.2,3.8,6.2,7.3S9,13.6,12.5,13.6z M12.5,2.6
		c2.6,0,4.7,2.1,4.7,4.6s-2.1,4.7-4.7,4.7S7.9,9.8,7.9,7.3S10,2.6,12.5,2.6z"/>
</g>
</svg>
